# xmcd CD database file
#
# Track frame offsets:
#	150
#	29930
#	60737
#	114332
#	138951
#	147883
#	186607
#	220590
#	268109
#
# Disc length: 3901 seconds
#
# Revision: 0
# Processed by: cddbd v1.5.2PL0 Copyright (c) Steve Scherf et al.
# Submitted via: CDex 1.70beta2
#
DISCID=8f0f3b09
DTITLE=John Mclaughlin - Que Alegria
DYEAR=1900
DGENRE=Jazz
TTITLE0=Belo Horizonte
TTITLE1=Baba
TTITLE2=Reincarnation
TTITLE3=Nite Stand
TTITLE4=Marie
TTITLE5=Hijacked
TTITLE6=Mila Repa
TTITLE7=Que Alegria
TTITLE8=3 Willows
EXTD=
EXTT0=
EXTT1=
EXTT2=
EXTT3=
EXTT4=
EXTT5=
EXTT6=
EXTT7=
EXTT8=
PLAYORDER=
